<svg width="25" height="24" viewBox="0 0 25 24" fill="none" xmlns="http://www.w3.org/2000/svg">
<path d="M7.5 6.00098C6.27936 6.00464 5.60383 6.03384 5.04873 6.26683C4.2712 6.59318 3.63801 7.19601 3.26811 7.96207C2.96618 8.58736 2.91677 9.38848 2.81796 10.9907L2.66312 13.5014C2.41739 17.4858 2.29452 19.478 3.46369 20.7393C4.63285 22.0005 6.60252 22.0005 10.5419 22.0005H14.4581C18.3975 22.0005 20.3672 22.0005 21.5363 20.7393C22.7055 19.478 22.5826 17.4858 22.3369 13.5014L22.182 10.9907C22.0832 9.38848 22.0338 8.58736 21.7319 7.96207C21.362 7.19601 20.7288 6.59318 19.9513 6.26683C19.3962 6.03384 18.7206 6.00464 17.5 6.00098" stroke="#0175CC" stroke-width="1.5" stroke-linecap="round"/>
<path d="M17.5 7L16.6142 4.78543C16.232 3.82996 15.8994 2.7461 14.9166 2.25955C14.3924 2 13.7616 2 12.5 2C11.2384 2 10.6076 2 10.0834 2.25955C9.1006 2.7461 8.76801 3.82996 8.38583 4.78543L7.5 7" stroke="#0175CC" stroke-width="1.5" stroke-linecap="round" stroke-linejoin="round"/>
<path d="M16 14C16 15.933 14.433 17.5 12.5 17.5C10.567 17.5 9 15.933 9 14C9 12.067 10.567 10.5 12.5 10.5C14.433 10.5 16 12.067 16 14Z" stroke="#0175CC" stroke-width="1.5"/>
<path d="M12.5 6H12.509" stroke="#0175CC" stroke-width="2" stroke-linecap="round" stroke-linejoin="round"/>
</svg>
