<svg xmlns="http://www.w3.org/2000/svg" xmlns:xlink="http://www.w3.org/1999/xlink" fill="none" version="1.1" width="32" height="32" viewBox="0 0 32 32"><g><g><g><path d="M3.4399841367645263,25.3466650390625C3.4399841367645263,25.3466650390625,3.4133171367645265,25.3733350390625,3.4133171367645265,25.3733350390625C3.053317136764526,24.5866650390625,2.826650436764526,23.6933320390625,2.7333171367645264,22.7066650390625C2.826650436764526,23.6799980390625,3.0799841367645264,24.5599950390625,3.4399841367645263,25.3466650390625C3.4399841367645263,25.3466650390625,3.4399841367645263,25.3466650390625,3.4399841367645263,25.3466650390625Z" fill="#9FA4BB" fill-opacity="1"/></g><g><path d="M15.17333015625,10.666656663970947C15.17333015625,12.419246663970947,13.75258015625,13.839996663970947,11.99999015625,13.839996663970947C10.24741015625,13.839996663970947,8.82666015625,12.419246663970947,8.82666015625,10.666656663970947C8.82666015625,8.914076663970947,10.24741015625,7.493326663970947,11.99999015625,7.493326663970947C13.75258015625,7.493326663970947,15.17333015625,8.914076663970947,15.17333015625,10.666656663970947C15.17333015625,10.666656663970947,15.17333015625,10.666656663970947,15.17333015625,10.666656663970947Z" fill="#9FA4BB" fill-opacity="1"/></g><g><path d="M21.586666746139528,2.6666667461395264C21.586666746139528,2.6666667461395264,10.413336746139526,2.6666667461395264,10.413336746139526,2.6666667461395264C5.559996746139527,2.6666667461395264,2.6666667461395264,5.559996746139527,2.6666667461395264,10.413336746139526C2.6666667461395264,10.413336746139526,2.6666667461395264,21.586666746139528,2.6666667461395264,21.586666746139528C2.6666667461395264,23.039966746139527,2.9199997461395264,24.306666746139527,3.4133337461395263,25.373366746139528C4.559996746139526,27.906666746139525,7.013336746139526,29.333366746139525,10.413336746139526,29.333366746139525C10.413336746139526,29.333366746139525,21.586666746139528,29.333366746139525,21.586666746139528,29.333366746139525C26.439966746139525,29.333366746139525,29.333366746139525,26.439966746139525,29.333366746139525,21.586666746139528C29.333366746139525,21.586666746139528,29.333366746139525,18.533366746139528,29.333366746139525,18.533366746139528C29.333366746139525,18.533366746139528,29.333366746139525,10.413336746139526,29.333366746139525,10.413336746139526C29.333366746139525,5.559996746139527,26.439966746139525,2.6666667461395264,21.586666746139528,2.6666667461395264C21.586666746139528,2.6666667461395264,21.586666746139528,2.6666667461395264,21.586666746139528,2.6666667461395264ZM27.159966746139528,16.666666746139526C26.119966746139525,15.773366746139526,24.439966746139525,15.773366746139526,23.399966746139526,16.666666746139526C23.399966746139526,16.666666746139526,17.85336674613953,21.426666746139528,17.85336674613953,21.426666746139528C16.813366746139526,22.319966746139528,15.133366746139526,22.319966746139528,14.093366746139527,21.426666746139528C14.093366746139527,21.426666746139528,13.639966746139526,21.053366746139528,13.639966746139526,21.053366746139528C12.693366746139526,20.226666746139525,11.186666746139526,20.146666746139527,10.119996746139527,20.866666746139526C10.119996746139527,20.866666746139526,5.133336746139527,24.213366746139528,5.133336746139527,24.213366746139528C4.839996746139526,23.466666746139527,4.666666746139526,22.599966746139525,4.666666746139526,21.586666746139528C4.666666746139526,21.586666746139528,4.666666746139526,10.413336746139526,4.666666746139526,10.413336746139526C4.666666746139526,6.6533367461395265,6.6533367461395265,4.666666746139526,10.413336746139526,4.666666746139526C10.413336746139526,4.666666746139526,21.586666746139528,4.666666746139526,21.586666746139528,4.666666746139526C25.346666746139526,4.666666746139526,27.333366746139525,6.6533367461395265,27.333366746139525,10.413336746139526C27.333366746139525,10.413336746139526,27.333366746139525,16.813366746139526,27.333366746139525,16.813366746139526C27.333366746139525,16.813366746139526,27.159966746139528,16.666666746139526,27.159966746139528,16.666666746139526C27.159966746139528,16.666666746139526,27.159966746139528,16.666666746139526,27.159966746139528,16.666666746139526Z" fill="#9FA4BB" fill-opacity="1"/></g><g style="opacity:0;"></g></g></g></svg>