<svg width="14" height="14" viewBox="0 0 14 14" fill="none" xmlns="http://www.w3.org/2000/svg">
<path d="M6.665 13.33C8.43267 13.33 10.1279 12.6278 11.3779 11.3779C12.6278 10.1279 13.33 8.43267 13.33 6.665C13.33 4.89733 12.6278 3.20206 11.3779 1.95213C10.1279 0.702203 8.43267 0 6.665 0C4.89733 0 3.20206 0.702203 1.95213 1.95213C0.702203 3.20206 0 4.89733 0 6.665C0 8.43267 0.702203 10.1279 1.95213 11.3779C3.20206 12.6278 4.89733 13.33 6.665 13.33ZM6.665 3.3325C7.01127 3.3325 7.28984 3.61108 7.28984 3.95734V6.87328C7.28984 7.21955 7.01127 7.49813 6.665 7.49813C6.31873 7.49813 6.04016 7.21955 6.04016 6.87328V3.95734C6.04016 3.61108 6.31873 3.3325 6.665 3.3325ZM5.83187 9.16438C5.83187 8.94342 5.91965 8.73151 6.07589 8.57527C6.23213 8.41903 6.44404 8.33125 6.665 8.33125C6.88596 8.33125 7.09787 8.41903 7.25411 8.57527C7.41035 8.73151 7.49813 8.94342 7.49813 9.16438C7.49813 9.38533 7.41035 9.59724 7.25411 9.75348C7.09787 9.90972 6.88596 9.9975 6.665 9.9975C6.44404 9.9975 6.23213 9.90972 6.07589 9.75348C5.91965 9.59724 5.83187 9.38533 5.83187 9.16438Z" fill="#6F797B"/>
</svg>
