<svg width="343" height="343" viewBox="0 0 343 343" fill="none" xmlns="http://www.w3.org/2000/svg">
<path d="M265.373 94.4142L264.11 92.6101C253.134 77.2231 234.75 68.8196 216.207 71.3441C213.818 71.6731 211.457 72.1752 209.141 72.8464C192.465 77.7239 178.669 91.6222 173.771 108.484C170.89 118.404 170.705 129.585 164.448 137.749C156.305 148.375 141.261 149.795 127.98 150.364C114.7 150.934 99.6487 152.388 91.5608 163.049C86.4912 169.73 85.3868 178.772 86.4501 187.134C89.2764 209.271 106.227 227.999 126.65 236.423C147.072 244.847 170.327 244.024 191.559 238.09C221.27 229.81 248.758 210.938 264.11 183.848C279.463 156.758 281.26 121.257 265.373 94.4142Z" fill="#E6F1FA"/>
<path d="M146.859 48.7198L139.052 40.6318L137.111 53.4189L126.65 53.069L133.194 61.6646L126.608 70.3082L137.516 68.1542L139.094 79.1302L147.916 72.4485L159.029 78.2727L156.6 67.036L169.216 65.0534L159.399 59.2636L165.12 49.3921L155.318 53.2268L154.124 41.0572L146.859 48.7198Z" fill="white"/>
<path d="M146.86 48.7058L147.34 48.1844C147.662 47.8346 148.122 47.3338 148.712 46.6821L154.042 40.9951L154.165 40.8648V41.0432C154.495 44.3497 154.913 48.4588 155.393 53.2128L155.236 53.1168L165.032 49.2614L165.395 49.1174L165.196 49.4535L159.489 59.3319L159.441 59.1261L169.257 64.9022L169.648 65.1355L169.196 65.2041L156.628 67.2278L156.765 67.022C157.541 70.6029 158.364 74.3896 159.201 78.2587L159.283 78.6222L158.954 78.4507L149.315 73.4018L147.834 72.6266H148.019L139.197 79.3014L138.964 79.4797L138.922 79.1916C138.387 75.4461 137.864 71.7874 137.352 68.2156L137.55 68.3597L126.643 70.5L126.218 70.5823L126.478 70.2393C128.77 67.2484 130.972 64.3603 133.078 61.6026V61.7398L126.54 53.1373L126.362 52.9041H126.657L137.118 53.2814L136.995 53.3843C137.77 48.3491 138.435 44.0684 138.971 40.5973V40.4326L139.087 40.5492L144.836 46.5792L146.324 48.1501C146.661 48.5 146.832 48.6921 146.832 48.6921C146.832 48.6921 146.661 48.5343 146.324 48.1913L144.822 46.6684L138.964 40.6659L139.108 40.6247C138.586 44.0959 137.948 48.3834 137.201 53.4186V53.5215H137.091L126.629 53.1922L126.746 52.9658L133.304 61.5546L133.373 61.6506L133.304 61.7398L126.725 70.3902L126.568 70.1296L137.468 67.9755H137.647V68.1539C138.163 71.7211 138.689 75.3797 139.224 79.1299L138.95 79.0201L147.765 72.3385L147.854 72.2699L147.95 72.3179L149.439 73.0999L159.043 78.142L158.796 78.3341L156.409 67.0769L156.374 66.8985H156.553L169.168 64.916L169.113 65.2178L159.304 59.4211L159.173 59.3388L159.249 59.2153C161.307 55.7167 163.214 52.4033 164.984 49.3506L165.148 49.5496L155.338 53.3637L155.194 53.4186V53.2677C154.742 48.5137 154.351 44.3977 154.035 41.098L154.179 41.1461L148.739 46.8056L147.333 48.2599C147.024 48.5617 146.86 48.7058 146.86 48.7058Z" fill="#263238"/>
<path d="M130.759 79.1303C130.759 79.5916 130.622 80.0425 130.365 80.4261C130.109 80.8096 129.745 81.1086 129.319 81.2851C128.893 81.4616 128.424 81.5078 127.971 81.4178C127.519 81.3278 127.103 81.1057 126.777 80.7795C126.451 80.4533 126.229 80.0377 126.139 79.5853C126.049 79.1328 126.095 78.6639 126.271 78.2377C126.448 77.8115 126.747 77.4472 127.13 77.1909C127.514 76.9346 127.965 76.7979 128.426 76.7979C128.732 76.7979 129.036 76.8582 129.319 76.9754C129.602 77.0926 129.859 77.2644 130.075 77.481C130.292 77.6976 130.464 77.9547 130.581 78.2377C130.698 78.5207 130.759 78.824 130.759 79.1303Z" fill="white"/>
<path d="M130.759 79.1299C130.724 79.1299 130.724 78.9241 130.615 78.5742C130.465 78.0941 130.168 77.6737 129.764 77.3737C129.47 77.1633 129.128 77.0278 128.77 76.9788C128.411 76.9298 128.046 76.9688 127.706 77.0925C127.291 77.2474 126.933 77.5256 126.68 77.8898C126.427 78.2539 126.292 78.6866 126.292 79.1299C126.292 79.5732 126.427 80.0059 126.68 80.37C126.933 80.7342 127.291 81.0123 127.706 81.1673C128.046 81.291 128.411 81.33 128.77 81.281C129.128 81.232 129.47 81.0964 129.764 80.8861C130.168 80.5861 130.465 80.1657 130.615 79.6856C130.724 79.3357 130.724 79.1299 130.759 79.1299C130.81 79.3209 130.81 79.522 130.759 79.713C130.65 80.2546 130.354 80.7404 129.922 81.085C129.596 81.3418 129.211 81.5118 128.802 81.579C128.393 81.6462 127.973 81.6084 127.583 81.4692C127.097 81.3003 126.675 80.9843 126.377 80.5651C126.079 80.1459 125.919 79.6443 125.919 79.1299C125.919 78.6155 126.079 78.1139 126.377 77.6946C126.675 77.2754 127.097 76.9595 127.583 76.7906C127.973 76.6514 128.393 76.6136 128.802 76.6808C129.211 76.748 129.596 76.918 129.922 77.1748C130.354 77.5193 130.65 78.0052 130.759 78.5468C130.81 78.7378 130.81 78.9389 130.759 79.1299Z" fill="#263238"/>
<path d="M148.012 53.7342L147.545 61.191C147.526 61.486 147.399 61.7637 147.19 61.9721C146.98 62.1804 146.701 62.3052 146.406 62.3229C146.096 62.3406 145.791 62.2389 145.554 62.0385C145.317 61.8382 145.165 61.5545 145.13 61.2459L144.307 53.7548C144.292 53.621 144.305 53.4854 144.346 53.3571C144.387 53.2287 144.454 53.1106 144.545 53.0106C144.635 52.9106 144.746 52.831 144.869 52.7772C144.992 52.7233 145.126 52.6964 145.261 52.6983H147.079C147.21 52.6997 147.339 52.7282 147.458 52.782C147.578 52.8359 147.685 52.914 147.773 53.0114C147.86 53.1088 147.927 53.2233 147.968 53.3477C148.009 53.4721 148.024 53.6037 148.012 53.7342Z" fill="#263238"/>
<path d="M144.43 66.5421C144.544 66.8833 144.756 67.1833 145.039 67.4041C145.323 67.6248 145.666 67.7565 146.025 67.7824C146.383 67.8084 146.741 67.7273 147.054 67.5497C147.367 67.372 147.619 67.1056 147.781 66.7842C147.942 66.4628 148.004 66.1008 147.96 65.744C147.915 65.3873 147.766 65.0517 147.53 64.7798C147.295 64.5079 146.985 64.3119 146.638 64.2165C146.291 64.1211 145.924 64.1307 145.583 64.244C145.356 64.3184 145.146 64.4371 144.965 64.5931C144.784 64.7491 144.635 64.9394 144.528 65.1531C144.421 65.3667 144.357 65.5994 144.34 65.8378C144.324 66.0762 144.354 66.3155 144.43 66.5421Z" fill="#263238"/>
<g filter="url(#filter0_d_2465_6578)">
<path d="M151.672 174.879H151.316C150.961 174.879 150.612 174.795 150.297 174.634C149.981 174.472 149.708 174.239 149.5 173.952C149.293 173.665 149.156 173.333 149.101 172.983C149.046 172.633 149.075 172.275 149.186 171.938C149.634 170.553 150.393 169.155 151.672 168.944C154.309 168.502 161.563 170.705 161.563 172.241C161.563 173.778 161.563 174.437 160.679 174.437H155.186L150.788 179.277L150.696 179.198C150.469 179.008 150.286 178.77 150.161 178.502C150.035 178.234 149.97 177.941 149.97 177.645C149.97 177.349 150.035 177.056 150.161 176.788C150.286 176.52 150.469 176.282 150.696 176.092C151.088 175.746 151.418 175.336 151.672 174.879Z" fill="#263238" stroke="#263238" stroke-linecap="round" stroke-linejoin="round"/>
<path d="M201.345 215.761H274.32C274.32 215.761 284.871 208.725 282.668 190.262C280.466 171.799 268.603 184.11 264.205 196.421H231.677C231.677 196.421 224.641 182.349 213.214 184.11C201.787 185.87 201.345 215.761 201.345 215.761Z" fill="#263238" stroke="#263238" stroke-linecap="round" stroke-linejoin="round"/>
<path d="M219.274 212.108C219.274 206.681 217.724 201.802 215.238 198.353V193.21H206.442C199.347 193.21 193.604 201.67 193.604 212.108C193.604 222.547 199.347 230.974 206.442 230.974H215.238V225.83C217.724 222.402 219.274 217.529 219.274 212.108Z" fill="#263238" stroke="#263238" stroke-linecap="round" stroke-linejoin="round"/>
<path d="M215.238 231C222.328 231 228.076 222.542 228.076 212.109C228.076 201.675 222.328 193.217 215.238 193.217C208.147 193.217 202.399 201.675 202.399 212.109C202.399 222.542 208.147 231 215.238 231Z" fill="#263238"/>
<mask id="mask0_2465_6578" style="mask-type:luminance" maskUnits="userSpaceOnUse" x="202" y="193" width="27" height="38">
<path d="M215.238 231C222.328 231 228.076 222.542 228.076 212.109C228.076 201.675 222.328 193.217 215.238 193.217C208.147 193.217 202.399 201.675 202.399 212.109C202.399 222.542 208.147 231 215.238 231Z" fill="white"/>
</mask>
<g mask="url(#mask0_2465_6578)">
<path opacity="0.2" d="M215.238 231C222.328 231 228.076 222.542 228.076 212.109C228.076 201.675 222.328 193.217 215.238 193.217C208.147 193.217 202.399 201.675 202.399 212.109C202.399 222.542 208.147 231 215.238 231Z" fill="white"/>
</g>
<path d="M215.238 231C222.328 231 228.076 222.542 228.076 212.109C228.076 201.675 222.328 193.217 215.238 193.217C208.147 193.217 202.399 201.675 202.399 212.109C202.399 222.542 208.147 231 215.238 231Z" stroke="#263238" stroke-linecap="round" stroke-linejoin="round"/>
<path d="M139.973 193.21H131.632C124.932 193.21 119.499 201.67 119.499 212.108C119.499 222.547 124.959 230.974 131.632 230.974H139.947C146.646 230.974 152.08 222.514 152.08 212.082C152.08 201.65 146.673 193.21 139.973 193.21Z" fill="#263238" stroke="#263238" stroke-linecap="round" stroke-linejoin="round"/>
<path d="M215.238 227.183C220.893 227.183 225.478 220.434 225.478 212.109C225.478 203.784 220.893 197.035 215.238 197.035C209.582 197.035 204.997 203.784 204.997 212.109C204.997 220.434 209.582 227.183 215.238 227.183Z" fill="white" stroke="#263238" stroke-linecap="round" stroke-linejoin="round"/>
<path d="M279.39 212.108C279.39 206.681 278.401 201.802 276.819 198.353V193.21H269.051C264.541 193.21 260.881 201.67 260.881 212.108C260.881 222.547 264.541 230.974 269.051 230.974H276.819V225.83C278.401 222.402 279.39 217.529 279.39 212.108Z" fill="#263238" stroke="#263238" stroke-linecap="round" stroke-linejoin="round"/>
<path d="M276.819 231C281.331 231 284.989 222.542 284.989 212.109C284.989 201.675 281.331 193.217 276.819 193.217C272.307 193.217 268.649 201.675 268.649 212.109C268.649 222.542 272.307 231 276.819 231Z" fill="#263238"/>
<mask id="mask1_2465_6578" style="mask-type:luminance" maskUnits="userSpaceOnUse" x="268" y="193" width="17" height="38">
<path d="M276.82 231C281.332 231 284.99 222.542 284.99 212.109C284.99 201.675 281.332 193.217 276.82 193.217C272.308 193.217 268.65 201.675 268.65 212.109C268.65 222.542 272.308 231 276.82 231Z" fill="white"/>
</mask>
<g mask="url(#mask1_2465_6578)">
<path opacity="0.2" d="M276.82 231C281.332 231 284.99 222.542 284.99 212.109C284.99 201.675 281.332 193.217 276.82 193.217C272.308 193.217 268.65 201.675 268.65 212.109C268.65 222.542 272.308 231 276.82 231Z" fill="white"/>
</g>
<path d="M276.819 231C281.331 231 284.989 222.542 284.989 212.109C284.989 201.675 281.331 193.217 276.819 193.217C272.307 193.217 268.649 201.675 268.649 212.109C268.649 222.542 272.307 231 276.819 231Z" stroke="#263238" stroke-linecap="round" stroke-linejoin="round"/>
<path d="M276.82 227.183C280.418 227.183 283.334 220.434 283.334 212.109C283.334 203.784 280.418 197.035 276.82 197.035C273.221 197.035 270.305 203.784 270.305 212.109C270.305 220.434 273.221 227.183 276.82 227.183Z" fill="white" stroke="#263238" stroke-linecap="round" stroke-linejoin="round"/>
<path d="M204.417 216.717C204.417 201.663 209.653 189.458 216.102 189.458C222.551 189.458 227.786 201.663 227.786 216.717C227.786 217.548 227.786 218.366 227.734 219.17H269.361C269.335 218.366 269.322 217.548 269.322 216.717C269.322 201.663 273.133 189.458 277.835 189.458C280.973 189.458 283.716 194.911 285.187 203.022V180.787C285.187 179.773 284.832 178.792 284.184 178.012C283.536 177.233 282.636 176.705 281.639 176.52L281.442 176.481C278.553 175.901 273.364 170.421 265.286 163.497C257.209 156.574 249.995 156 249.995 156H177.131C175.752 156.005 174.413 156.469 173.327 157.319L148.474 176.501C148.474 176.501 126.259 180.826 121.353 185.732C116.447 190.638 117.027 219.19 117.027 219.19H204.47C204.437 218.366 204.417 217.548 204.417 216.717Z" fill="#0175CC"/>
<mask id="mask2_2465_6578" style="mask-type:luminance" maskUnits="userSpaceOnUse" x="117" y="156" width="169" height="64">
<path d="M204.416 216.717C204.416 201.663 209.652 189.458 216.101 189.458C222.55 189.458 227.785 201.663 227.785 216.717C227.785 217.548 227.785 218.366 227.733 219.17H269.36C269.334 218.366 269.321 217.548 269.321 216.717C269.321 201.663 273.132 189.458 277.834 189.458C280.972 189.458 283.715 194.911 285.186 203.022V180.787C285.186 179.773 284.831 178.792 284.183 178.012C283.535 177.233 282.635 176.705 281.638 176.52L281.441 176.481C278.552 175.901 273.363 170.421 265.285 163.497C257.208 156.574 249.994 156 249.994 156H177.13C175.751 156.005 174.412 156.469 173.326 157.319L148.473 176.501C148.473 176.501 126.258 180.826 121.352 185.732C116.446 190.638 117.026 219.19 117.026 219.19H204.469C204.436 218.366 204.416 217.548 204.416 216.717Z" fill="white"/>
</mask>
<g mask="url(#mask2_2465_6578)">
<path opacity="0.3" d="M218.844 176.481L222.701 156H177.13C175.751 156.005 174.412 156.469 173.326 157.319L148.473 176.501C148.473 176.501 126.258 180.826 121.352 185.732C116.446 190.638 117.026 219.19 117.026 219.19H195.046C195.613 203.773 199.148 196.441 199.148 196.441H177.605C194.308 178.393 218.844 176.481 218.844 176.481Z" fill="black"/>
</g>
<path d="M204.417 216.717C204.417 201.663 209.653 189.458 216.102 189.458C222.551 189.458 227.786 201.663 227.786 216.717C227.786 217.548 227.786 218.366 227.734 219.17H269.361C269.335 218.366 269.322 217.548 269.322 216.717C269.322 201.663 273.133 189.458 277.835 189.458C280.973 189.458 283.716 194.911 285.187 203.022V180.787C285.187 179.773 284.832 178.792 284.184 178.012C283.536 177.233 282.636 176.705 281.639 176.52L281.442 176.481C278.553 175.901 273.364 170.421 265.286 163.497C257.209 156.574 249.995 156 249.995 156H177.131C175.752 156.005 174.413 156.469 173.327 157.319L148.474 176.501C148.474 176.501 126.259 180.826 121.353 185.732C116.447 190.638 117.027 219.19 117.027 219.19H204.47C204.437 218.366 204.417 217.548 204.417 216.717Z" stroke="#263238" stroke-linecap="round" stroke-linejoin="round"/>
<path d="M232.113 156H177.132C175.753 156.005 174.414 156.469 173.327 157.319L148.475 176.501H218.846L232.113 156Z" fill="#0175CC" stroke="#263238" stroke-linecap="round" stroke-linejoin="round"/>
<path d="M203.31 184.195C199.353 184.248 192.423 184.512 189.423 185.712C186.937 186.688 184.526 187.845 182.209 189.174H196.34L203.31 184.195Z" fill="#263238" stroke="#263238" stroke-linecap="round" stroke-linejoin="round"/>
<path d="M197.21 193.499V190.901H182.209L184.926 193.407C184.883 193.433 184.843 193.464 184.807 193.499H197.21Z" fill="#263238" stroke="#263238" stroke-linecap="round" stroke-linejoin="round"/>
<path d="M198.647 189.747V193.519C199.231 193.469 199.796 193.284 200.297 192.98C200.797 192.676 201.221 192.26 201.536 191.765C202.98 189.457 206.224 184.195 206.224 184.195L198.647 189.747Z" fill="#263238" stroke="#263238" stroke-linecap="round" stroke-linejoin="round"/>
<path d="M122.737 193.389L125.454 190.883H119.051C118.854 191.694 118.669 192.564 118.511 193.481H122.856C122.819 193.447 122.779 193.416 122.737 193.389Z" fill="#263238" stroke="#263238" stroke-linecap="round" stroke-linejoin="round"/>
<path d="M120.594 186.708C120.152 187.488 119.798 188.316 119.539 189.174H125.474C123.893 188.264 122.264 187.44 120.594 186.708Z" fill="#263238" stroke="#263238" stroke-linecap="round" stroke-linejoin="round"/>
<path d="M218.845 176.482H261.534C261.534 176.482 267.594 174.464 265.86 166.96C265.273 164.415 253.166 158.599 251.439 158.599H230.668L218.845 176.482Z" fill="#263238"/>
<mask id="mask3_2465_6578" style="mask-type:luminance" maskUnits="userSpaceOnUse" x="218" y="158" width="49" height="19">
<path d="M218.844 176.481H261.533C261.533 176.481 267.593 174.463 265.859 166.959C265.272 164.414 253.165 158.598 251.438 158.598H230.667L218.844 176.481Z" fill="white"/>
</mask>
<g mask="url(#mask3_2465_6578)">
<path opacity="0.2" d="M218.844 176.481H261.533C261.533 176.481 267.593 174.463 265.859 166.959C265.272 164.414 253.165 158.598 251.438 158.598H230.667L218.844 176.481Z" fill="white" stroke="#263238" stroke-linecap="round" stroke-linejoin="round"/>
</g>
<path d="M218.845 176.482H261.534C261.534 176.482 267.594 174.464 265.86 166.96C265.273 164.415 253.166 158.599 251.439 158.599H230.668L218.845 176.482Z" stroke="#263238" stroke-linecap="round" stroke-linejoin="round"/>
<path d="M171.632 158.599L148.454 176.482H218.845L230.431 158.599H171.632Z" fill="#263238" stroke="#263238" stroke-linecap="round" stroke-linejoin="round"/>
<path d="M126.536 189.748V195.808L130.862 198.98H165.764L173.841 195.518V189.748H126.536Z" fill="#263238" stroke="#263238" stroke-linecap="round" stroke-linejoin="round"/>
<path opacity="0.3" d="M128.152 189.748H126.536V191.364H128.152V189.748Z" fill="white"/>
<path opacity="0.3" d="M129.932 191.535H128.316V193.151H129.932V191.535Z" fill="white"/>
<path opacity="0.3" d="M131.718 193.315H130.103V194.931H131.718V193.315Z" fill="white"/>
<path opacity="0.3" d="M133.499 195.103H131.884V196.718H133.499V195.103Z" fill="white"/>
<path opacity="0.3" d="M173.525 189.748H171.909V191.364H173.525V189.748Z" fill="white"/>
<path opacity="0.3" d="M171.738 191.535H170.122V193.151H171.738V191.535Z" fill="white"/>
<path opacity="0.3" d="M169.957 193.315H168.342V194.931H169.957V193.315Z" fill="white"/>
<path opacity="0.3" d="M168.177 195.103H166.562V196.718H168.177V195.103Z" fill="white"/>
<path opacity="0.3" d="M135.979 195.103H134.363V196.718H135.979V195.103Z" fill="white"/>
<path opacity="0.3" d="M138.451 195.103H136.836V196.718H138.451V195.103Z" fill="white"/>
<path opacity="0.3" d="M140.93 195.103H139.314V196.718H140.93V195.103Z" fill="white"/>
<path opacity="0.3" d="M143.409 195.103H141.794V196.718H143.409V195.103Z" fill="white"/>
<path opacity="0.3" d="M145.882 195.103H144.267V196.718H145.882V195.103Z" fill="white"/>
<path opacity="0.3" d="M148.362 195.103H146.746V196.718H148.362V195.103Z" fill="white"/>
<path opacity="0.3" d="M150.834 195.103H149.219V196.718H150.834V195.103Z" fill="white"/>
<path opacity="0.3" d="M153.314 195.103H151.698V196.718H153.314V195.103Z" fill="white"/>
<path opacity="0.3" d="M155.794 195.103H154.179V196.718H155.794V195.103Z" fill="white"/>
<path opacity="0.3" d="M158.267 195.103H156.651V196.718H158.267V195.103Z" fill="white"/>
<path opacity="0.3" d="M160.745 195.103H159.13V196.718H160.745V195.103Z" fill="white"/>
<path opacity="0.3" d="M163.219 195.103H161.604V196.718H163.219V195.103Z" fill="white"/>
<path opacity="0.3" d="M165.698 195.103H164.082V196.718H165.698V195.103Z" fill="white"/>
<path d="M190.57 206.477H118.748L117.786 198.782C117.344 203.015 117.126 207.519 117.054 211.225L117.304 212.247L118.748 209.365H124.907L121.083 212.511H178.193L176.156 209.339H190.596L194.639 211.647H197.52V196.962L190.57 206.477Z" fill="#263238" stroke="#263238" stroke-linecap="round" stroke-linejoin="round"/>
<path d="M233.872 174.879H233.516C233.162 174.878 232.814 174.793 232.499 174.631C232.185 174.47 231.913 174.236 231.705 173.949C231.498 173.662 231.362 173.331 231.308 172.981C231.254 172.631 231.283 172.274 231.393 171.938C231.835 170.553 232.6 169.155 233.872 168.944C236.51 168.502 243.763 170.705 243.763 172.241C243.763 173.778 243.763 174.437 242.886 174.437H237.394L232.995 179.277L232.903 179.198C232.676 179.008 232.493 178.77 232.368 178.502C232.242 178.234 232.177 177.941 232.177 177.645C232.177 177.349 232.242 177.056 232.368 176.788C232.493 176.52 232.676 176.282 232.903 176.092C233.293 175.746 233.621 175.336 233.872 174.879Z" fill="#0175CC"/>
<path d="M246.981 176.482H249.394C249.137 172.941 248.128 165.146 244.165 158.599H241.752C243.143 161.612 246.44 169.386 246.981 176.482Z" fill="#263238" stroke="#263238" stroke-linecap="round" stroke-linejoin="round"/>
<path d="M194.969 163.451L195.852 165.864C194.766 166.899 194.133 168.321 194.092 169.82V176.48H188.678L193.215 163.451H194.969ZM169.694 166.748C165.982 169.009 160.377 174.001 157.653 176.48H175.727L185.078 162.132L178.926 162.567C175.679 163.551 172.575 164.957 169.694 166.748ZM207.062 164.987L204.86 164.545H201.787L200.903 165.429C200.903 165.429 203.106 165.646 203.323 166.965C203.473 168.279 203.546 169.6 203.541 170.922H205.084C205.084 170.922 205.084 168.502 206.178 167.407C206.8 166.779 207.461 166.191 208.157 165.646L207.062 164.987Z" fill="white" stroke="#263238" stroke-linecap="round" stroke-linejoin="round"/>
<path d="M232.903 179.198L232.996 179.277L237.394 174.437H242.887C243.612 174.437 243.737 173.982 243.757 172.953H231.308C231.382 173.486 231.647 173.975 232.053 174.328C232.458 174.682 232.978 174.877 233.517 174.879H233.873C233.619 175.336 233.289 175.746 232.897 176.092C232.67 176.282 232.488 176.52 232.363 176.789C232.238 177.057 232.174 177.35 232.174 177.646C232.175 177.942 232.241 178.235 232.367 178.503C232.493 178.771 232.676 179.008 232.903 179.198Z" fill="#263238" stroke="#263238" stroke-linecap="round" stroke-linejoin="round"/>
<path d="M246.467 181.789H241.521V182.851H246.467V181.789Z" fill="#263238"/>
<path d="M268.735 181.789H263.789V182.851H268.735V181.789Z" fill="#263238"/>
<path d="M269.085 177.562C269.085 177.562 272.665 179.996 274.742 188.522C274.742 188.522 265.906 189.577 265.906 213.968" stroke="#263238" stroke-linecap="round" stroke-linejoin="round"/>
<path d="M264.832 215.01H227.761C227.761 215.577 227.761 216.144 227.761 216.718C227.761 217.548 227.761 218.366 227.708 219.171H269.336C269.309 218.366 269.296 217.548 269.296 216.718V216.553L264.832 215.01Z" fill="#263238" stroke="#263238" stroke-linecap="round" stroke-linejoin="round"/>
<path d="M204.417 216.718C204.417 216.144 204.417 215.577 204.417 215.01H117.001C117.001 217.548 117.001 219.171 117.001 219.171H204.47C204.437 218.366 204.417 217.548 204.417 216.718Z" fill="#263238" stroke="#263238" stroke-linecap="round" stroke-linejoin="round"/>
<path d="M283.638 179.673C283.199 179.673 282.767 179.787 282.385 180.005C282.004 180.222 281.685 180.535 281.461 180.913C281.237 181.291 281.115 181.72 281.107 182.16C281.099 182.599 281.206 183.033 281.416 183.418L285.188 190.342V180.787C285.183 180.411 285.13 180.036 285.03 179.673H283.638Z" fill="#263238" stroke="#263238" stroke-linecap="round" stroke-linejoin="round"/>
<path d="M249.698 180.153C249.698 180.153 257.611 191.581 249.698 210.927" stroke="#263238" stroke-linecap="round" stroke-linejoin="round"/>
</g>
<path d="M113.656 55.1547C114.877 53.0967 114.226 50.2773 112.545 48.576C110.753 46.947 108.393 46.0872 105.973 46.1819C103.582 46.2946 101.216 46.7189 98.9347 47.4441C98.105 46.2999 96.9741 45.4085 95.6677 44.869C94.3614 44.3296 92.931 44.1633 91.5357 44.3888C90.1405 44.6142 88.8352 45.2225 87.7652 46.1458C86.6952 47.0692 85.9025 48.2715 85.4754 49.6187C84.6633 49.2705 83.7716 49.1507 82.8964 49.2723C82.0213 49.3939 81.1959 49.7523 80.5096 50.3087C79.8232 50.8651 79.3019 51.5985 79.0019 52.4296C78.702 53.2606 78.6347 54.1579 78.8075 55.0244L88.7956 60.3683L97.1648 82.485C98.6436 84.2048 100.697 85.3284 102.943 85.6467C105.188 85.9649 107.473 85.456 109.371 84.2148C111.27 82.9736 112.652 81.0847 113.261 78.8999C113.87 76.7151 113.665 74.3833 112.682 72.339C113.417 71.8617 114.071 71.2687 114.617 70.5829C115.626 70.184 116.546 69.5878 117.322 68.8293C118.098 68.0707 118.715 67.165 119.137 66.165C120.839 61.8844 118.115 56.3964 113.656 55.1547Z" fill="#263238"/>
<path d="M100.018 96.4039C99.8813 92.9739 99.7783 90.6553 99.7783 90.6827C99.7783 90.7101 106.391 89.2352 107.324 80.4544C107.784 76.0915 107.208 69.0051 106.542 63.2221C105.945 58.0222 102.159 51.7934 96.9795 52.6097L80.9476 57.5489C79.3767 57.7959 78.8896 59.161 79.0063 60.7525L78.8896 61.5003L80.9476 86.3883L80.8036 97.0076C81.1672 101.741 86.0035 105.884 90.7506 105.926C91.9937 105.942 93.227 105.704 94.3753 105.228C95.5237 104.752 96.5631 104.047 97.4302 103.156C98.2973 102.265 98.974 101.207 99.419 100.046C99.8639 98.8854 100.068 97.6461 100.018 96.4039Z" fill="#FFBF9D"/>
<path d="M104.636 70.9193C104.655 71.2105 104.559 71.4976 104.37 71.7193C104.18 71.941 103.911 72.0798 103.62 72.1061C103.479 72.1243 103.335 72.1141 103.197 72.0762C103.06 72.0383 102.931 71.9735 102.819 71.8854C102.706 71.7973 102.613 71.6877 102.543 71.5631C102.473 71.4385 102.429 71.3012 102.413 71.1594C102.396 70.8675 102.493 70.5804 102.684 70.3589C102.875 70.1374 103.144 69.9988 103.435 69.9726C103.576 69.9544 103.72 69.9646 103.857 70.0026C103.994 70.0406 104.123 70.1055 104.234 70.1937C104.346 70.2819 104.439 70.3915 104.508 70.516C104.577 70.6406 104.62 70.7777 104.636 70.9193Z" fill="#263238"/>
<path d="M104.958 67.8731C104.827 68.024 103.949 67.4409 102.749 67.5095C101.548 67.5781 100.691 68.1955 100.56 68.0789C100.43 67.9622 100.622 67.7427 100.993 67.4477C101.492 67.0582 102.102 66.8351 102.735 66.8098C103.358 66.7728 103.977 66.9389 104.498 67.2831C104.889 67.5438 105.033 67.8045 104.958 67.8731Z" fill="#263238"/>
<path d="M93.7758 71.4202C93.7929 71.7113 93.6956 71.9976 93.5047 72.218C93.3138 72.4385 93.0442 72.5756 92.7537 72.6001C92.6123 72.6192 92.4685 72.6097 92.3309 72.5721C92.1933 72.5346 92.0647 72.4697 91.9526 72.3813C91.8406 72.293 91.7475 72.183 91.6789 72.058C91.6103 71.9329 91.5675 71.7953 91.5532 71.6534C91.5342 71.363 91.6299 71.0767 91.8197 70.856C92.0096 70.6354 92.2784 70.498 92.5684 70.4735C92.7102 70.4544 92.8543 70.4638 92.9923 70.5013C93.1304 70.5388 93.2595 70.6036 93.372 70.6919C93.4846 70.7801 93.5783 70.8901 93.6477 71.0151C93.717 71.1402 93.7606 71.278 93.7758 71.4202Z" fill="#263238"/>
<path d="M93.481 68.2294C93.3507 68.3804 92.4726 67.8041 91.2721 67.8659C90.0716 67.9276 89.2141 68.5519 89.0838 68.4353C88.9534 68.3186 89.1455 68.106 89.5159 67.8041C90.0174 67.4174 90.6258 67.1946 91.2584 67.1662C91.8835 67.1335 92.5029 67.2992 93.0283 67.6395C93.4056 67.9139 93.5496 68.1608 93.481 68.2294Z" fill="#263238"/>
<path d="M98.2215 76.5102C98.8448 76.2787 99.4947 76.1266 100.156 76.0575C100.458 76.0094 100.746 75.934 100.787 75.7213C100.798 75.4026 100.71 75.0884 100.533 74.8227L99.5112 72.5383C98.098 69.2866 97.0279 66.5907 97.1582 66.5426C97.2886 66.4946 98.5302 69.0877 99.9845 72.3462C100.328 73.1488 100.671 73.9171 100.972 74.6512C101.186 75.0099 101.266 75.4327 101.199 75.8448C101.159 75.9555 101.094 76.0557 101.01 76.1377C100.925 76.2197 100.823 76.2814 100.712 76.3181C100.545 76.3749 100.372 76.4095 100.197 76.421C99.5453 76.5367 98.8811 76.5667 98.2215 76.5102Z" fill="#263238"/>
<path d="M99.7787 90.6826C95.6845 90.9564 91.5948 90.0871 87.9658 88.1719C87.9658 88.1719 91.2175 94.1607 99.8885 92.9053L99.7787 90.6826Z" fill="#FF9A6C"/>
<path d="M93.2962 63.3248C93.1658 63.6472 91.9722 63.4483 90.5522 63.5718C89.1322 63.6952 87.9797 64.0383 87.8082 63.7364C87.7327 63.5924 87.9385 63.2974 88.4119 62.9955C89.0373 62.6258 89.7395 62.4051 90.4639 62.3504C91.1884 62.2956 91.9157 62.4084 92.5896 62.68C93.1315 62.9064 93.3785 63.167 93.2962 63.3248Z" fill="#263238"/>
<path d="M104.821 63.4624C104.588 63.7505 103.593 63.5173 102.413 63.5653C101.233 63.6133 100.252 63.8603 100.005 63.5653C99.8953 63.4281 100.039 63.1468 100.465 62.8793C101.05 62.5302 101.718 62.3432 102.399 62.3373C103.075 62.3045 103.747 62.4588 104.341 62.7832C104.773 63.0508 104.958 63.3252 104.821 63.4624Z" fill="#263238"/>
<path d="M85.4961 52.5206C85.5356 53.3953 85.7672 54.2506 86.1746 55.0256C86.582 55.8006 87.1551 56.4764 87.8532 57.0049C88.5513 57.5334 89.3572 57.9016 90.2137 58.0834C91.0702 58.2651 91.9563 58.256 92.8088 58.0566C94.126 57.7479 95.5529 57.0071 96.7396 57.6588C97.9264 58.3105 98.1116 60.1627 99.2435 61.0476C100.849 62.303 103.222 60.931 105.198 61.4112C106.728 61.7885 107.736 63.1742 108.8 64.3404C109.863 65.5066 111.406 66.5768 112.916 66.0554C112.804 64.7008 112.537 63.3635 112.12 62.0697C111.696 60.7667 110.833 59.6513 109.678 58.9141C109.002 58.6055 108.342 58.262 107.702 57.8851C106.399 56.9385 106.028 55.196 105.184 53.8309C104.633 52.9451 103.878 52.2044 102.981 51.6708C102.085 51.1373 101.074 50.8264 100.032 50.7645C98.3106 50.6684 96.6024 51.2721 94.8806 50.936C93.632 50.6821 92.5139 49.9344 91.2516 49.756C88.7958 49.413 86.6143 51.2721 84.9404 53.0969" fill="#263238"/>
<path d="M93.4543 55.6008C92.3498 55.347 90.086 54.7502 89.448 53.831C88.8131 52.8395 87.9272 52.0336 86.8802 51.4951C85.8333 50.9565 84.6625 50.7045 83.4867 50.7645C82.3036 50.9111 81.2004 51.4389 80.3439 52.2682C79.4874 53.0974 78.9243 54.183 78.7396 55.3607C77.3195 55.4814 75.9582 55.9828 74.7992 56.8122C73.6402 57.6417 72.7263 58.7683 72.154 60.0736C71.568 61.4439 71.3242 62.9362 71.4437 64.4218C71.5633 65.9074 72.0424 67.3415 72.84 68.6005C73.2187 69.2627 73.5511 69.9504 73.8347 70.6585C73.1992 71.233 72.6203 71.867 72.106 72.5519C69.705 76.2289 74.3149 78.5064 74.3149 78.5064C73.9101 81.1681 76.3729 81.5385 77.9438 81.7786C79.5148 82.0187 79.7274 86.3474 80.9759 86.3748L81.7648 73.2242C81.937 73.3212 82.1252 73.3862 82.3205 73.4163C85.2771 73.9376 85.3801 68.2095 84.6529 66.6043C85.6992 65.6464 86.6211 64.5609 87.3969 63.3732C88.2569 61.5096 88.6343 59.4596 88.4945 57.4119C89.5235 57.4187 93.9413 55.7175 93.4543 55.6008Z" fill="#263238"/>
<path d="M82.0798 73.9922C82.0425 73.5645 81.8977 73.1532 81.6588 72.7966C81.4199 72.4399 81.0946 72.1495 80.7132 71.9523C80.3319 71.7551 79.9069 71.6576 79.4777 71.6688C79.0486 71.6801 78.6293 71.7997 78.2588 72.0165C77.4013 72.5722 76.777 73.6286 76.9554 75.5906C77.4287 80.8248 82.5806 79.2675 82.5806 79.1166C82.5806 78.9657 82.3199 76.1462 82.0798 73.9922Z" fill="#FFBF9D"/>
<path d="M80.8041 77.2786C80.8041 77.2786 80.7149 77.354 80.5709 77.4364C80.3603 77.5483 80.1148 77.5753 79.8849 77.5118C79.3155 77.3609 78.7736 76.524 78.6638 75.5842C78.6063 75.1359 78.6532 74.6804 78.801 74.2533C78.8342 74.0857 78.9077 73.9288 79.0153 73.7961C79.1229 73.6634 79.2613 73.5589 79.4184 73.4919C79.5207 73.4554 79.6325 73.4553 79.7349 73.4915C79.8374 73.5278 79.9242 73.5981 79.9809 73.6908C80.0632 73.8349 80.0427 73.9378 80.0701 73.9446C80.0975 73.9515 80.173 73.8486 80.1113 73.6359C80.0725 73.5087 79.9898 73.3993 79.878 73.3272C79.725 73.2308 79.5401 73.1988 79.3635 73.238C79.1523 73.3013 78.9605 73.4168 78.8058 73.5739C78.6511 73.731 78.5386 73.9246 78.4786 74.1367C78.2988 74.611 78.2376 75.122 78.3002 75.6253C78.4237 76.6749 79.0548 77.6147 79.83 77.7656C79.9744 77.7937 80.1232 77.7892 80.2656 77.7524C80.4081 77.7156 80.5405 77.6475 80.6532 77.553C80.8041 77.4089 80.8178 77.2854 80.8041 77.2786Z" fill="#FF9A6C"/>
<path d="M74.6092 63.0228C74.5269 62.9726 74.4509 62.9127 74.3828 62.8444C74.182 62.6562 73.992 62.457 73.8134 62.2476C73.1431 61.4605 72.6829 60.5165 72.4757 59.5036C72.3363 58.8037 72.3574 58.0813 72.5375 57.3907C72.7366 56.5891 73.1601 55.8609 73.7585 55.2916C74.0941 54.9766 74.4887 54.7313 74.9197 54.57C75.3507 54.4087 75.8094 54.3345 76.2693 54.3517C76.7671 54.3547 77.2575 54.4733 77.7015 54.6983C78.1456 54.9234 78.5313 55.2486 78.8281 55.6483L78.5811 55.7649V55.71C77.9518 53.9134 78.0578 51.9408 78.8761 50.222C79.2186 49.5296 79.7252 48.9314 80.3517 48.4795C80.9782 48.0275 81.7056 47.7355 82.4707 47.6289C82.9856 47.5782 83.5055 47.6316 83.9993 47.786C84.4931 47.9404 84.9508 48.1926 85.3451 48.5276C85.5579 48.71 85.7428 48.9227 85.8939 49.1587C85.947 49.238 85.9907 49.3232 86.0242 49.4125C85.8084 49.1157 85.5573 48.8462 85.2765 48.6099C84.4858 47.9952 83.4869 47.7122 82.4913 47.821C81.7656 47.9372 81.0786 48.2266 80.4887 48.6649C79.8987 49.1032 79.4232 49.6774 79.1025 50.3386C78.3339 51.9944 78.2428 53.8851 78.8487 55.6071V55.662L79.0956 56.4783L78.6086 55.7923C78.3359 55.4283 77.983 55.1318 77.5774 54.926C77.1717 54.7202 76.7241 54.6106 76.2693 54.6056C75.8432 54.5875 75.4177 54.6539 75.0174 54.8011C74.617 54.9483 74.2498 55.1733 73.9369 55.4631C73.3674 55.995 72.9606 56.6778 72.7638 57.4319C72.5804 58.1026 72.55 58.8059 72.6747 59.4899C72.8648 60.4689 73.2858 61.3884 73.9026 62.1721C74.3279 62.7415 74.6298 63.0022 74.6092 63.0228Z" fill="#263238"/>
<path d="M78.0395 78.3965C77.8183 78.4897 77.6069 78.6046 77.4083 78.7395C76.9119 79.1635 76.5555 79.7279 76.3862 80.3584C76.25 80.7882 76.1919 81.239 76.2147 81.6893C76.2456 82.2013 76.4061 82.697 76.6812 83.1299C76.9931 83.6068 77.4171 84.0001 77.916 84.2755C78.4433 84.581 79.0508 84.7197 79.6584 84.6734C80.2683 84.6317 80.8526 84.4123 81.3391 84.0423C81.7904 83.7006 82.1373 83.2397 82.3407 82.7114C82.5267 82.2663 82.6168 81.787 82.605 81.3047C82.5931 80.8224 82.4797 80.348 82.2721 79.9125C81.9699 79.3301 81.4647 78.8785 80.8521 78.6434C80.6293 78.5719 80.3992 78.5258 80.1661 78.5062H80.3513C80.5336 78.5097 80.7142 78.5421 80.8864 78.6023C81.5285 78.816 82.0623 79.2712 82.375 79.8714C82.5977 80.3185 82.7226 80.8079 82.7416 81.307C82.7605 81.8062 82.6729 82.3036 82.4847 82.7663C82.2656 83.3102 81.9028 83.7845 81.4352 84.1383C80.9317 84.5331 80.3235 84.7716 79.6859 84.8243C79.0491 84.8753 78.412 84.7292 77.8611 84.4058C77.3416 84.1194 76.9027 83.7065 76.5851 83.2053C76.3002 82.7534 76.135 82.2364 76.1049 81.703C76.0886 81.2374 76.1559 80.7727 76.3039 80.331C76.4819 79.6815 76.8644 79.1066 77.3946 78.6915C77.5419 78.5864 77.7037 78.5032 77.8748 78.4445C77.9281 78.4233 77.9832 78.4072 78.0395 78.3965Z" fill="#455A64"/>
<path d="M98.098 79.3978C97.99 79.1634 97.8057 78.9726 97.5751 78.8567C97.3445 78.7408 97.0814 78.7066 96.8289 78.7598C96.604 78.7632 96.3874 78.8454 96.217 78.992C96.0465 79.1387 95.9329 79.3406 95.8959 79.5624C95.8587 79.724 95.8553 79.8915 95.886 80.0544C95.9167 80.2174 95.9808 80.3722 96.0743 80.5091C96.2394 80.7477 96.4817 80.9221 96.7603 81.003C96.9308 81.0452 97.1084 81.0504 97.2811 81.0185C97.4538 80.9866 97.6177 80.9181 97.7618 80.8178C97.9339 80.6292 98.0551 80.3998 98.1139 80.1514C98.1727 79.9029 98.1672 79.6435 98.098 79.3978Z" fill="#FF9A6C"/>
<path d="M83.3008 277.57L85.9968 300.832L96.1907 299.282L96.8767 276.355L83.3008 277.57Z" fill="#FFBF9D"/>
<path d="M96.2251 294.672C96.2251 294.672 89.3651 300.469 85.5715 296.209L84.8169 298.479L81.8191 314.456C81.7117 314.952 81.7873 315.471 82.0319 315.916C82.2764 316.361 82.6735 316.702 83.1499 316.878C83.5114 316.991 83.8978 316.997 84.2628 316.896C84.6279 316.795 84.956 316.591 85.2079 316.308C87.9519 313.187 98.0773 301.655 97.8715 300.215L97.5559 296.373C97.5254 295.984 97.378 295.614 97.1332 295.31C96.8884 295.007 96.5575 294.784 96.1839 294.672H96.2251Z" fill="#0175CC"/>
<g opacity="0.6">
<path d="M83.5137 316.933L97.7962 298.85L97.8511 299.687C97.8959 300.03 97.8651 300.38 97.7608 300.71C97.6565 301.041 97.4813 301.345 97.2474 301.6C96.1155 303.425 92.9256 307.562 85.2836 316.274C85.0699 316.528 84.7957 316.724 84.4864 316.843C84.1771 316.963 83.8426 317.003 83.5137 316.96V316.933Z" fill="white"/>
</g>
<g opacity="0.6">
<path d="M95.3544 296.551C95.126 296.75 94.9773 297.025 94.9357 297.325C94.8941 297.625 94.9624 297.93 95.128 298.184C95.3081 298.422 95.5742 298.579 95.8693 298.623C96.1643 298.667 96.4647 298.593 96.7058 298.417C96.9452 298.204 97.0999 297.913 97.1415 297.595C97.1831 297.277 97.1088 296.956 96.9322 296.688C96.8268 296.575 96.6999 296.483 96.5588 296.418C96.4177 296.354 96.2652 296.318 96.1102 296.313C95.9551 296.308 95.8006 296.334 95.6556 296.389C95.5106 296.444 95.3779 296.527 95.2652 296.634" fill="white"/>
</g>
<path d="M87.362 307.966C86.859 307.385 86.2488 306.905 85.5647 306.553C84.3848 306.039 83.3352 306.402 83.3009 306.279C83.2666 306.155 83.5205 306.059 83.9869 305.963C84.5776 305.846 85.1899 305.911 85.7431 306.148C86.3008 306.378 86.7782 306.767 87.1151 307.267C87.362 307.658 87.4101 307.946 87.362 307.966Z" fill="#263238"/>
<path d="M86.1618 310.759C86.0726 310.855 85.4072 310.251 84.385 310.032C83.3629 309.812 82.5191 310.032 82.4779 309.922C82.4368 309.812 83.3217 309.339 84.4811 309.606C85.6404 309.874 86.2578 310.663 86.1618 310.759Z" fill="#263238"/>
<path d="M89.7082 304.371C89.619 304.474 88.6037 303.548 87.0465 303.068C85.4893 302.588 84.1378 302.725 84.1241 302.595C84.1104 302.464 85.4961 302.107 87.17 302.649C88.8438 303.191 89.7973 304.31 89.7082 304.371Z" fill="#263238"/>
<path d="M89.7147 299.583C89.6666 299.707 88.569 299.323 87.1696 299.378C85.7702 299.433 84.6931 299.851 84.6451 299.734C84.5971 299.618 85.6604 298.98 87.1627 298.939C88.6651 298.897 89.7695 299.487 89.7147 299.583Z" fill="#263238"/>
<path d="M86.3746 299.399C86.3445 299.146 86.3631 298.89 86.4295 298.644C86.5701 297.966 86.8428 297.323 87.2321 296.751C87.4738 296.31 87.8551 295.963 88.316 295.763C88.4723 295.711 88.6409 295.711 88.7976 295.761C88.9542 295.812 89.0907 295.911 89.1872 296.044C89.3685 296.317 89.4418 296.647 89.393 296.97C89.2831 297.623 88.9489 298.217 88.4481 298.651C87.9473 299.084 87.3111 299.329 86.649 299.344C85.9981 299.335 85.3648 299.131 84.8314 298.758C84.298 298.385 83.8892 297.86 83.6581 297.251C83.5978 297.096 83.5715 296.929 83.581 296.762C83.5904 296.595 83.6354 296.432 83.7129 296.284C83.8013 296.144 83.9326 296.037 84.0871 295.977C84.2416 295.918 84.4111 295.91 84.5704 295.955C85.0366 296.114 85.4513 296.396 85.7709 296.771C86.2474 297.263 86.635 297.834 86.9166 298.459C87.0326 298.671 87.1071 298.904 87.1361 299.145C86.7146 298.35 86.1835 297.618 85.5583 296.97C85.2694 296.656 84.906 296.42 84.5018 296.284C84.4144 296.257 84.3203 296.26 84.2345 296.292C84.1488 296.324 84.0763 296.384 84.0285 296.463C83.9454 296.665 83.9454 296.892 84.0285 297.094C84.2441 297.613 84.606 298.057 85.0701 298.374C85.5342 298.691 86.0804 298.866 86.6422 298.877C87.2011 298.864 87.7388 298.661 88.1675 298.302C88.5961 297.943 88.8904 297.449 89.002 296.902C89.0462 296.666 89.0023 296.421 88.8785 296.216C88.8259 296.141 88.7508 296.086 88.6644 296.058C88.578 296.029 88.4847 296.029 88.3983 296.058C88.0099 296.229 87.684 296.517 87.4654 296.881C86.9551 297.649 86.5858 298.501 86.3746 299.399Z" fill="#263238"/>
<path d="M123.693 295.9C123.46 295.543 121.319 287.757 121.319 287.757L134.518 284.162L136.391 295.385L123.693 295.9Z" fill="#FFBF9D"/>
<path d="M136.274 293.176V294.068C136.274 294.068 150.796 299.988 150.982 302.869L122.279 303.075L122.609 293.039C126.91 295.083 131.369 295.282 136.274 293.176Z" fill="#0175CC"/>
<g opacity="0.6">
<path d="M125.538 296.229C125.257 296.326 125.02 296.522 124.872 296.781C124.725 297.04 124.676 297.343 124.736 297.635C124.803 297.923 124.98 298.172 125.228 298.331C125.477 298.49 125.778 298.546 126.067 298.486C126.364 298.379 126.612 298.167 126.766 297.891C126.92 297.615 126.969 297.293 126.903 296.984C126.855 296.84 126.778 296.707 126.678 296.592C126.578 296.478 126.456 296.385 126.319 296.318C126.183 296.251 126.035 296.212 125.883 296.202C125.731 296.193 125.579 296.214 125.435 296.263" fill="white"/>
</g>
<g opacity="0.6">
<path d="M122.293 303.075L122.375 300.66L149.856 301.346C149.856 301.346 151.132 301.922 150.995 302.869L122.293 303.075Z" fill="white"/>
</g>
<path d="M136.391 294.157C136.391 294.301 135.705 294.376 135.019 294.843C134.333 295.309 133.969 295.947 133.839 295.885C133.708 295.824 133.914 294.98 134.751 294.417C135.588 293.855 136.418 294.02 136.391 294.157Z" fill="#263238"/>
<path d="M139.409 295.44C139.444 295.584 138.833 295.838 138.36 296.463C137.886 297.087 137.756 297.752 137.619 297.745C137.482 297.739 137.386 296.908 137.982 296.14C138.579 295.372 139.402 295.303 139.409 295.44Z" fill="#263238"/>
<path d="M141.145 299.213C141.014 299.248 140.815 298.527 141.145 297.704C141.474 296.881 142.153 296.572 142.208 296.689C142.263 296.805 141.865 297.251 141.584 297.917C141.302 298.582 141.316 299.2 141.145 299.213Z" fill="#263238"/>
<path d="M116.682 159.152C117.306 159.564 122.033 187.882 128.193 225.537C133.256 256.509 136.205 287.867 136.205 287.867L122.005 290.611C122.005 290.611 108.628 252.195 101.556 224.61C95.0317 199.146 91.8418 181.317 91.8418 181.317V162.699L116.682 159.152Z" fill="#263238"/>
<path d="M73.6074 148.726C73.6074 148.726 60.5254 166.404 61.623 184.864C62.309 195.902 83.3006 290.035 83.3006 290.035H98.9483L93.8376 186.346L95.3331 162.199L73.6074 148.726Z" fill="#263238"/>
<path d="M115.365 99.4219C115.365 99.4219 119.831 100.149 122.177 106.508C124.619 113.128 127.404 128.666 127.404 128.666L110.48 130.251L111.016 104.834L115.365 99.4219Z" fill="#0175CC"/>
<path d="M68.257 99.1543C68.257 99.1543 61.054 101.068 60.1005 112.744C59.5585 119.186 59.682 130.251 59.682 130.251C59.682 130.251 61.9047 131.019 68.0649 128.543C73.0453 126.539 77.909 128.618 77.909 128.618L69.7731 104.334L68.257 99.1543Z" fill="#0175CC"/>
<path d="M80.6458 92.1436L77.5863 95.6765L67.406 99.422L69.615 142.565L63.29 168.53C63.29 168.53 69.464 169.723 71.9199 172.989C74.3758 176.254 81.6405 179.965 90.6957 180.535C99.7509 181.104 107.462 175.493 111.029 173.709C114.596 171.925 120.338 170.464 121.051 168.509C121.518 167.226 116.071 129.037 116.071 129.037L115.385 99.4014L106.131 97.2611L102.516 94.2564L89.2894 105.301L86.3053 101.597L80.6458 92.1436Z" fill="#0175CC"/>
<path d="M119.995 160.654C119.842 160.782 119.677 160.895 119.501 160.99L118.027 161.896C116.751 162.664 114.892 163.776 112.539 165.052C109.79 166.567 106.938 167.887 104.005 169.003C100.406 170.396 96.6131 171.222 92.7612 171.452C88.8967 171.699 85.0252 171.093 81.4216 169.675C79.862 169.028 78.382 168.204 77.0106 167.219C75.7347 166.279 74.6302 165.319 73.5806 164.523C72.637 163.788 71.6072 163.171 70.5142 162.685C69.6901 162.325 68.8156 162.093 67.9211 161.999C67.1531 161.935 66.3799 161.993 65.6299 162.17C65.6741 162.143 65.7229 162.125 65.7739 162.115C65.9137 162.06 66.0584 162.019 66.2061 161.992C66.7674 161.874 67.3433 161.842 67.9143 161.896C68.8319 161.962 69.7329 162.175 70.5828 162.527C71.6993 163.003 72.7523 163.616 73.7178 164.352C74.8017 165.134 75.9199 166.094 77.189 167.007C78.5443 167.967 80.006 168.768 81.5451 169.394C85.1096 170.776 88.9322 171.366 92.7475 171.123C96.5612 170.891 100.318 170.081 103.888 168.722C106.814 167.627 109.663 166.337 112.415 164.859C114.782 163.611 116.655 162.534 117.958 161.807L119.46 160.963C119.631 160.848 119.81 160.745 119.995 160.654Z" fill="white"/>
<path d="M118.541 149.912C118.408 150.04 118.26 150.153 118.102 150.248C117.807 150.461 117.368 150.77 116.792 151.14C115.166 152.205 113.482 153.181 111.75 154.062C109.182 155.375 106.503 156.459 103.744 157.3C100.353 158.339 96.8408 158.934 93.2963 159.07C89.7543 159.203 86.2123 158.808 82.7868 157.897C81.2923 157.501 79.8294 156.994 78.4101 156.381C77.0793 155.798 75.8925 155.16 74.8018 154.597C73.1401 153.612 71.2971 152.97 69.3824 152.711C68.6777 152.669 67.9705 152.713 67.2764 152.841C67.4488 152.779 67.6253 152.729 67.8046 152.69C68.3251 152.58 68.8582 152.541 69.3892 152.574C70.7612 152.574 72.7301 153.26 74.9184 154.371C76.016 154.92 77.2096 155.544 78.5268 156.107C79.9358 156.705 81.3872 157.198 82.8691 157.582C86.2707 158.467 89.7842 158.846 93.2963 158.707C96.8063 158.577 100.285 157.998 103.648 156.985C106.396 156.161 109.069 155.108 111.64 153.836C113.835 152.752 115.55 151.737 116.716 151.023L118.088 150.193C118.233 150.09 118.384 149.996 118.541 149.912Z" fill="white"/>
<path d="M116.887 140.555C116.788 140.685 116.678 140.807 116.558 140.918C116.232 141.257 115.878 141.569 115.502 141.851C114.094 142.866 112.52 143.627 110.85 144.101C108.378 144.792 105.855 145.283 103.304 145.569C94.5315 146.701 85.627 146.257 77.0101 144.259C74.8903 143.745 73.1891 143.258 72.0297 142.887L70.6989 142.434C70.54 142.391 70.386 142.331 70.2393 142.256C70.4019 142.28 70.5625 142.317 70.7195 142.366L72.0915 142.75C73.2645 143.086 74.9658 143.532 77.0855 144.012C82.6367 145.217 88.3013 145.822 93.9817 145.816C97.1005 145.817 100.216 145.624 103.311 145.24C105.842 144.972 108.348 144.514 110.809 143.868C112.464 143.419 114.033 142.701 115.454 141.742C116.407 141.035 116.86 140.527 116.887 140.555Z" fill="white"/>
<path d="M116.4 130.251C116.25 130.311 116.097 130.362 115.941 130.402L114.61 130.772C114.034 130.937 113.327 131.129 112.497 131.321C111.667 131.513 110.727 131.753 109.671 131.959C107.578 132.419 105.061 132.871 102.248 133.276C99.4354 133.681 96.3347 133.997 93.0625 134.195C89.7903 134.394 86.669 134.401 83.8358 134.346C81.0026 134.292 78.4438 134.106 76.2898 133.894C75.2196 133.811 74.2318 133.681 73.4086 133.578C72.5854 133.475 71.8376 133.379 71.2477 133.29L69.8757 133.07C69.7146 133.053 69.5559 133.019 69.4023 132.968C69.562 132.952 69.7228 132.952 69.8825 132.968L71.2545 133.118C71.8514 133.194 72.5785 133.283 73.4292 133.359C74.2798 133.434 75.2333 133.544 76.3035 133.612C78.437 133.791 80.982 133.921 83.8495 133.99C86.717 134.058 89.7903 133.99 93.0488 133.811C96.3073 133.633 99.408 133.29 102.214 132.92C105.019 132.549 107.53 132.11 109.629 131.685C110.679 131.493 111.626 131.273 112.456 131.095C113.286 130.916 113.999 130.752 114.582 130.615L115.954 130.306C116.1 130.271 116.25 130.253 116.4 130.251Z" fill="white"/>
<path d="M111.42 119.721C111.302 119.78 111.178 119.824 111.049 119.851L109.952 120.153C109.005 120.42 107.619 120.75 105.897 121.127C101.397 122.074 96.8168 122.591 92.2186 122.671C86.8266 122.746 81.9697 122.334 78.4574 122.067L74.3071 121.71L73.1752 121.6C73.0427 121.593 72.9114 121.57 72.7842 121.532C72.9165 121.52 73.0497 121.52 73.1821 121.532L74.314 121.58L78.478 121.82C81.9903 122.026 86.8472 122.396 92.198 122.321C96.7768 122.239 101.34 121.759 105.836 120.887C107.558 120.544 108.95 120.256 109.911 120.029L111.015 119.789C111.146 119.747 111.282 119.724 111.42 119.721Z" fill="white"/>
<path d="M113.835 108.56C113.684 108.592 113.53 108.608 113.375 108.608L112.051 108.691L107.174 108.944C101.816 109.214 96.4798 109.816 91.1967 110.749C85.0227 111.846 79.2672 112.306 75.1375 112.066C73.505 111.997 71.8784 111.828 70.2669 111.558C69.6975 111.469 69.2653 111.359 68.9635 111.304C68.8108 111.279 68.6613 111.238 68.5176 111.181C68.6717 111.186 68.8253 111.202 68.9772 111.229C69.279 111.27 69.7181 111.352 70.2943 111.421C71.9029 111.637 73.5219 111.768 75.1443 111.812C80.5086 111.883 85.8663 111.41 91.135 110.399C96.43 109.454 101.785 108.884 107.16 108.691C109.218 108.608 110.892 108.567 112.044 108.546H113.375C113.528 108.533 113.683 108.538 113.835 108.56Z" fill="white"/>
<path opacity="0.3" d="M77.9092 96.582L81.0854 110.261L83.0062 107.579L77.9092 96.582Z" fill="black"/>
<path d="M87.9449 104.17C87.8912 104.324 87.8149 104.47 87.7185 104.602C87.547 104.876 87.2863 105.288 86.9433 105.747C86.2573 106.715 85.2077 108.018 84.1307 109.644L83.9798 109.877L83.8495 109.63C83.2321 108.45 82.5804 107.133 81.9149 105.74C80.5978 102.996 79.4865 100.472 78.6907 98.6404C78.2997 97.7212 78.0047 96.9803 77.7784 96.4589C77.6553 96.1971 77.5588 95.9236 77.4902 95.6426C77.6555 95.8813 77.7957 96.1365 77.9087 96.404C78.1762 96.9734 78.5192 97.6869 78.924 98.5375C79.8021 100.41 80.982 102.866 82.2374 105.59C82.9234 106.962 83.5408 108.292 84.1376 109.479H83.8563C84.9745 107.84 86.0652 106.577 86.7855 105.644C87.5058 104.711 87.9174 104.149 87.9449 104.17Z" fill="#263238"/>
<path d="M99.7509 129.778C99.8426 129.75 99.9367 129.729 100.032 129.717L100.848 129.586C101.534 129.476 102.611 129.326 103.963 129.175C106.659 128.859 110.535 128.489 115.234 128.393H115.371V128.523C115.707 131.384 116.057 134.539 116.469 137.914C116.661 139.602 116.867 141.344 117.072 143.135C117.178 144.049 117.28 144.964 117.381 145.879C117.436 146.338 117.491 146.798 117.539 147.251C117.625 147.728 117.648 148.215 117.607 148.698C117.579 148.874 117.515 149.043 117.419 149.194C117.324 149.345 117.199 149.475 117.052 149.576C116.766 149.748 116.449 149.86 116.119 149.906C115.481 149.988 114.891 149.995 114.287 150.043L110.741 150.276L107.311 150.495C106.207 150.646 105.087 150.646 103.983 150.495C103.445 150.372 102.944 150.121 102.524 149.762C102.103 149.404 101.776 148.95 101.569 148.437C101.2 147.509 100.968 146.531 100.883 145.536C100.65 143.642 100.471 141.879 100.334 140.26C100.066 137.036 99.9223 134.416 99.8332 132.611C99.7989 131.727 99.7646 131.027 99.744 130.553C99.744 130.334 99.744 130.156 99.744 130.012C99.7364 129.95 99.7364 129.888 99.744 129.826C99.7655 129.886 99.7771 129.948 99.7783 130.012C99.7783 130.149 99.7783 130.327 99.8263 130.547C99.8606 131.054 99.9155 131.747 99.9772 132.605C100.114 134.416 100.293 137.029 100.595 140.247C100.746 141.859 100.938 143.622 101.185 145.501C101.271 146.468 101.503 147.416 101.871 148.314C102.061 148.775 102.361 149.184 102.745 149.503C103.128 149.822 103.584 150.043 104.073 150.146C105.143 150.29 106.227 150.29 107.297 150.146L110.727 149.912L114.273 149.672C114.87 149.624 115.495 149.611 116.071 149.535C116.647 149.46 117.189 149.185 117.264 148.623C117.297 148.164 117.274 147.704 117.196 147.251C117.141 146.791 117.086 146.331 117.038 145.879C116.928 144.964 116.825 144.049 116.729 143.135C116.524 141.342 116.327 139.602 116.139 137.914C115.755 134.532 115.405 131.377 115.083 128.516L115.234 128.646C110.542 128.722 106.666 129.031 103.97 129.298L100.842 129.655L100.025 129.744C99.9348 129.762 99.8431 129.774 99.7509 129.778Z" fill="#263238"/>
<path d="M115.934 133.77C115.934 133.873 112.415 134.161 108.059 134.456C103.703 134.751 100.17 134.854 100.163 134.751C100.156 134.648 103.682 134.36 108.038 134.099C112.394 133.839 115.934 133.681 115.934 133.77Z" fill="#263238"/>
<path d="M94.1951 180.604C94.1862 180.542 94.1862 180.48 94.1951 180.419C94.1951 180.268 94.1951 180.089 94.1951 179.863C94.1951 179.355 94.1951 178.649 94.154 177.757C94.154 175.891 94.0922 173.243 94.0511 169.985C93.9619 163.406 93.8316 154.358 93.6944 144.363C93.5572 134.368 93.5572 125.285 93.6326 118.727C93.6669 115.441 93.7149 112.793 93.7698 110.954C93.7698 110.063 93.8247 109.356 93.8384 108.841C93.8384 108.622 93.8384 108.444 93.8384 108.3C93.8294 108.236 93.8294 108.171 93.8384 108.107C93.8484 108.171 93.8484 108.236 93.8384 108.3C93.8384 108.444 93.8384 108.622 93.8384 108.848C93.8384 109.356 93.8384 110.063 93.8384 110.961C93.8384 112.82 93.8384 115.468 93.8384 118.727C93.8384 125.285 93.8864 134.347 94.003 144.356C94.1197 154.364 94.2363 163.426 94.2569 169.985C94.2569 173.264 94.2569 175.919 94.2569 177.75C94.2569 178.649 94.2569 179.355 94.2569 179.863C94.2569 180.089 94.2569 180.268 94.2569 180.419C94.2458 180.483 94.225 180.546 94.1951 180.604Z" fill="#263238"/>
<path d="M74.0331 159.838C74.1114 161.993 74.0656 164.15 73.8959 166.3C73.8501 168.455 73.6829 170.605 73.3951 172.742C73.3255 170.586 73.3736 168.429 73.5392 166.279C73.5895 164.125 73.7543 161.975 74.0331 159.838Z" fill="#263238"/>
<path d="M72.0295 162.788C71.9637 163.745 71.777 164.69 71.4739 165.601C71.2881 166.55 70.9839 167.472 70.5684 168.345C70.6394 167.388 70.8284 166.443 71.1309 165.532C71.314 164.583 71.6159 163.661 72.0295 162.788Z" fill="#263238"/>
<path d="M110.968 169.044C110.676 168.504 110.446 167.934 110.282 167.343C109.311 164.523 108.707 161.591 108.484 158.617C108.411 158.002 108.411 157.38 108.484 156.765C108.62 157.365 108.71 157.975 108.752 158.589C108.889 159.721 109.115 161.272 109.438 162.966C109.76 164.661 110.192 166.17 110.508 167.26C110.705 167.843 110.859 168.439 110.968 169.044Z" fill="#263238"/>
<path d="M105.692 98.0986C105.527 98.3463 105.336 98.5762 105.123 98.7846L103.476 100.561C102.104 102.05 100.122 104.087 97.9473 106.317L94.874 109.459C94.627 109.699 94.4212 109.939 94.1468 110.145C94.0061 110.261 93.8388 110.342 93.6598 110.378C93.4718 110.406 93.28 110.367 93.1178 110.268C92.8652 110.089 92.6565 109.854 92.5073 109.582L92.0888 108.896C91.5949 108.066 91.1764 107.373 90.8403 106.838C90.6774 106.59 90.5395 106.325 90.4287 106.049C90.6288 106.26 90.808 106.49 90.9638 106.735L92.3358 108.745L92.7748 109.431C92.9038 109.667 93.0844 109.871 93.303 110.028C93.415 110.084 93.5418 110.103 93.6651 110.082C93.7884 110.061 93.9018 110.001 93.989 109.912C94.2086 109.726 94.4349 109.459 94.675 109.226L97.7346 106.063C99.9024 103.827 101.885 101.817 103.332 100.376L105.061 98.6817C105.252 98.4677 105.464 98.2724 105.692 98.0986Z" fill="#263238"/>
<g opacity="0.3">
<path d="M117.121 144.273C110.371 131.467 103.282 118.822 95.8552 106.337L93.1455 111.317C96.3285 116.894 96.4452 123.665 98.0916 129.839C99.8764 136.482 103.433 142.514 108.382 147.291C109.856 148.711 111.571 150.035 113.609 150.296C115.646 150.556 117.965 149.143 118.047 147.099C117.988 146.093 117.669 145.119 117.121 144.273Z" fill="black"/>
</g>
<g opacity="0.3">
<path d="M74.9528 141.852L68.6416 148.266C69.4922 150.564 72.0716 151.902 74.5412 151.696C75.7553 151.545 76.927 151.153 77.9873 150.543C79.0476 149.933 79.9751 149.116 80.7152 148.142C82.1911 146.184 83.3295 143.993 84.0835 141.66C86.8458 133.988 88.6029 125.992 89.3108 117.869C84.5317 125.872 79.7457 133.867 74.9528 141.852Z" fill="black"/>
</g>
<path d="M72.6195 117.643C72.0856 117.187 71.5963 116.682 71.1584 116.134C70.294 115.18 69.1004 113.835 67.7764 112.402C66.6416 111.168 65.4392 109.997 64.1749 108.896C63.2008 108.066 62.5285 107.634 62.5628 107.579C62.745 107.635 62.9166 107.72 63.0704 107.833C63.5103 108.095 63.932 108.386 64.3327 108.704C65.6581 109.746 66.8969 110.893 68.0371 112.134C69.4091 113.582 70.5341 114.947 71.3504 115.955C71.8195 116.482 72.244 117.046 72.6195 117.643Z" fill="#263238"/>
<path d="M118.733 102.214C118.325 102.761 117.885 103.283 117.416 103.778C116.356 105.03 115.388 106.358 114.521 107.75C113.659 109.146 112.898 110.602 112.243 112.106C112.004 112.745 111.729 113.371 111.42 113.979C111.541 113.302 111.739 112.642 112.01 112.01C112.601 110.458 113.34 108.967 114.219 107.558C115.095 106.15 116.104 104.83 117.23 103.613C117.672 103.087 118.176 102.617 118.733 102.214Z" fill="#263238"/>
<path d="M79.693 100.492C79.693 100.554 78.7394 100.732 77.2234 101.178C73.2613 102.302 69.5831 104.254 66.4326 106.906C65.2184 107.915 64.5324 108.614 64.4912 108.573C64.6107 108.376 64.756 108.196 64.9234 108.038C65.2184 107.702 65.678 107.249 66.2954 106.714C69.4003 103.926 73.1403 101.941 77.1891 100.931C77.7976 100.779 78.4135 100.657 79.0344 100.568C79.2503 100.517 79.4713 100.492 79.693 100.492Z" fill="white"/>
<path d="M117.306 103.421C116.67 103.267 116.049 103.061 115.447 102.804C114.315 102.392 112.744 101.843 110.995 101.288C109.246 100.732 107.641 100.293 106.481 99.9775C105.841 99.8489 105.215 99.6629 104.608 99.4219C105.26 99.4587 105.906 99.5645 106.536 99.7374C107.723 99.9844 109.342 100.423 111.105 100.952C112.868 101.48 114.425 102.097 115.543 102.571C116.158 102.793 116.749 103.078 117.306 103.421Z" fill="white"/>
<path d="M123.796 113.039C121.859 113.359 119.905 113.565 117.944 113.657C115.994 113.864 114.033 113.948 112.072 113.91C114.007 113.591 115.958 113.387 117.917 113.3C119.869 113.093 121.833 113.006 123.796 113.039Z" fill="white"/>
<path d="M125.915 123.624C125.55 123.818 125.152 123.943 124.742 123.994C123.769 124.181 122.782 124.291 121.792 124.324C120.633 124.365 119.59 124.358 118.835 124.358C118.425 124.391 118.012 124.37 117.607 124.296C117.607 124.18 119.473 124.022 121.771 123.967C124.07 123.912 125.894 123.535 125.915 123.624Z" fill="white"/>
<path d="M72.092 117.65C71.5449 117.842 70.9755 117.964 70.3976 118.013C69.0151 118.197 67.6214 118.284 66.2267 118.274C64.594 118.274 63.1191 118.205 62.0558 118.164C61.479 118.176 60.9024 118.132 60.334 118.034C60.9013 117.927 61.4791 117.885 62.0558 117.91C63.126 117.91 64.6009 117.91 66.2199 117.91C67.8388 117.91 69.3069 117.842 70.3359 117.759C70.9173 117.675 71.5046 117.638 72.092 117.65Z" fill="white"/>
<path d="M90.2366 85.2287C90.2366 85.2287 89.2762 94.1467 89.7701 95.0248C90.264 95.9029 95.0523 101.363 95.0523 101.363L102.262 101.096L106.797 88.6175L105.781 83.3422C105.781 83.3422 104.787 83.1638 104.526 84.481L103.703 80.708C103.703 80.708 101.809 79.871 101.837 81.5586C101.864 83.2462 101.94 84.9886 101.94 84.9886L100.842 89.6603L101.322 83.1981L100.081 79.3085C100.081 79.3085 98.5098 78.7323 98.2765 80.9275C98.1386 82.2951 98.1111 83.6715 98.1942 85.0435L97.1309 88.988L97.2887 81.7713C97.2887 81.7713 96.8428 79.3291 95.6011 80.0082C94.3595 80.6874 93.2962 91.4713 93.2962 91.4713L92.6102 92.8433L92.8708 89.7083C92.8708 89.7083 92.9875 83.6921 90.2366 85.2287Z" fill="#FFBF9D"/>
<path d="M90.2368 85.2287L90.3672 85.1464C90.511 85.0736 90.663 85.0183 90.8199 84.9817C91.0822 84.921 91.3577 84.9575 91.5951 85.0846C91.9016 85.2835 92.1407 85.5705 92.2811 85.9078C92.665 86.8333 92.8743 87.8217 92.8985 88.8233C92.8985 89.1183 92.9328 89.4201 92.8985 89.7426C92.8642 90.065 92.8436 90.3805 92.823 90.7098C92.7682 91.3958 92.7133 92.0818 92.6515 92.8433L92.4663 92.7953C92.679 92.3699 92.9122 91.9035 93.1523 91.4233V91.4644C93.3444 89.4682 93.5982 87.2387 93.9892 84.8102C94.1762 83.535 94.4512 82.2744 94.8124 81.0372C94.9088 80.6977 95.0544 80.3741 95.2446 80.0768C95.3656 79.9107 95.541 79.7922 95.7403 79.7421C95.9396 79.6919 96.1502 79.7133 96.3354 79.8024C96.6534 80.0067 96.8946 80.3107 97.0214 80.6668C97.1682 81.0022 97.2808 81.3515 97.3575 81.7095C97.3095 83.9939 97.2615 86.4086 97.2134 88.9262L96.8979 88.8782C97.2272 87.6434 97.5839 86.3057 97.9543 84.9337V84.9886C97.8784 83.8465 97.8784 82.7006 97.9543 81.5586C97.9537 80.9478 98.0774 80.3433 98.3179 79.7818C98.4654 79.4699 98.725 79.2249 99.0451 79.0958C99.3693 78.9824 99.7224 78.9824 100.047 79.0958H100.122V79.185C100.513 80.413 100.938 81.7369 101.371 83.0746V83.1432C101.22 85.2012 101.055 87.3896 100.89 89.6054L100.541 89.5505C100.753 88.6518 100.986 87.6846 101.227 86.7104C101.371 86.0999 101.522 85.4962 101.666 84.8925V84.9406C101.666 84.1105 101.618 83.2873 101.59 82.4641C101.59 82.0456 101.549 81.6683 101.59 81.2156C101.604 80.9618 101.703 80.7202 101.871 80.5296C102.055 80.3494 102.3 80.2442 102.557 80.2346C102.791 80.2216 103.023 80.2683 103.233 80.3703C103.443 80.4724 103.624 80.6264 103.758 80.8177C103.886 81.0027 103.973 81.2134 104.012 81.4351L104.135 82.0251C104.307 82.8002 104.471 83.5754 104.643 84.3437H104.3C104.357 83.9987 104.511 83.6772 104.746 83.4176C104.876 83.2868 105.035 83.1873 105.21 83.1267C105.384 83.0661 105.571 83.0459 105.754 83.0678H105.871V83.1913C106.214 84.9886 106.552 86.747 106.886 88.4666V88.5146V88.5558C105.247 93.0285 103.717 97.2131 102.324 101.027L102.29 101.123H102.187L94.9839 101.37H94.9222L94.881 101.329C93.0494 99.2162 91.3893 97.3091 90.0242 95.5461C89.8435 95.3385 89.6913 95.1078 89.5714 94.8601C89.5271 94.7248 89.5017 94.584 89.4959 94.4417C89.4857 94.3115 89.4857 94.1808 89.4959 94.0506C89.4959 93.5293 89.4959 93.0285 89.4959 92.5552C89.5371 91.6016 89.5988 90.7373 89.6606 89.9552C89.7909 88.398 89.9144 87.2112 90.0104 86.3743C90.0585 85.9764 90.0928 85.6883 90.1202 85.4413C90.1278 85.3346 90.1462 85.2288 90.1751 85.1258C90.1751 85.1258 90.1751 85.2355 90.1751 85.4482C90.1751 85.6609 90.1339 85.9833 90.0996 86.3812C90.0379 87.1975 89.9281 88.4392 89.8252 89.9689C89.7772 90.7441 89.7223 91.6153 89.6949 92.562C89.6949 93.0354 89.6949 93.5293 89.6949 94.0369C89.6878 94.1649 89.6878 94.2931 89.6949 94.4211C89.7019 94.5447 89.7249 94.667 89.7635 94.7847C89.8742 95.0327 90.0198 95.2637 90.1957 95.4707C91.5677 97.2062 93.2415 99.1065 95.08 101.199L94.9771 101.158L102.187 100.876L102.05 100.972C103.422 97.1514 104.952 92.9599 106.57 88.4803V88.5695C106.241 86.8545 105.884 85.0915 105.548 83.2942L105.692 83.4314C105.567 83.4219 105.44 83.4396 105.322 83.4834C105.203 83.5272 105.096 83.596 105.006 83.6852C104.818 83.8975 104.694 84.1594 104.65 84.4398L104.485 85.2767L104.307 84.4398C104.135 83.6715 103.971 82.8963 103.799 82.1142L103.669 81.5311C103.643 81.3561 103.578 81.1893 103.477 81.0441C103.38 80.9004 103.248 80.7848 103.092 80.7089C102.937 80.633 102.764 80.5995 102.592 80.6119C102.427 80.6173 102.27 80.6871 102.156 80.8063C102.042 80.9256 101.979 81.0848 101.981 81.2499C101.981 81.6066 101.981 82.0525 101.981 82.4504C101.981 83.2667 102.029 84.0899 102.057 84.92V85.064L101.624 86.8819C101.391 87.8561 101.158 88.8233 100.938 89.722L100.589 89.6671C100.753 87.4513 100.918 85.263 101.076 83.205V83.2736C100.65 81.9016 100.225 80.605 99.834 79.3771L99.9369 79.4869C99.6926 79.3996 99.4249 79.4052 99.1845 79.5026C98.9441 79.6 98.748 79.7824 98.6335 80.0151C98.4197 80.5331 98.3079 81.0874 98.3042 81.6478C98.2324 82.7716 98.2324 83.899 98.3042 85.0229V85.064C97.9406 86.436 97.577 87.808 97.2409 89.0085L96.891 90.2914L96.9253 88.9605C96.9802 86.4429 97.0419 84.0282 97.0968 81.7438C97.0293 81.4089 96.9258 81.0823 96.7881 80.7697C96.681 80.4706 96.4785 80.2151 96.2119 80.0425C96.0886 79.9811 95.9472 79.9665 95.814 80.0014L95.6151 80.0837C95.5595 80.1213 95.5127 80.1704 95.4779 80.2277C95.3058 80.5009 95.172 80.7964 95.08 81.1058C94.7197 82.3274 94.4424 83.5719 94.2499 84.8308C93.8452 87.2524 93.5639 89.475 93.365 91.4576V91.4987L92.679 92.8707L92.4457 93.3235L92.4938 92.8227C92.5624 92.075 92.6241 91.3615 92.679 90.6961C92.679 90.36 92.7407 90.0101 92.7682 89.722C92.7956 89.4339 92.7682 89.1114 92.7682 88.8233C92.7566 87.8368 92.566 86.8605 92.2056 85.9421C92.0731 85.6175 91.846 85.3403 91.5539 85.1464C91.3332 85.0221 91.0753 84.9807 90.8268 85.0297C90.6243 85.0773 90.4268 85.144 90.2368 85.2287Z" fill="#FF9A6C"/>
<path d="M103.785 91.5747C103.976 90.4711 104.275 89.3889 104.677 88.3436V88.4053V87.98C104.541 86.7267 104.527 85.463 104.636 84.207C104.884 85.4429 105.017 86.6991 105.034 87.9595V88.3848V88.4534C104.723 89.5329 104.304 90.5785 103.785 91.5747Z" fill="#FF9A6C"/>
<path d="M63.3242 130.087C63.3242 130.087 64.1611 140.089 68.2566 142.647C72.352 145.206 77.8606 146.818 82.6145 134.978C84.8509 129.387 96.1836 99.8959 96.1836 99.8959L86.511 96.1641L67.7558 126.451L63.3242 130.087Z" fill="#FFBF9D"/>
<path d="M99.8887 95.4912L121.155 125.771C121.155 125.771 127.665 139.574 118.843 143.744C111.585 147.174 106.166 139.869 103.95 133.509C101.686 126.999 92.0752 101.144 92.0752 101.144L99.8887 95.4912Z" fill="#FFBF9D"/>
<path d="M85.6401 79.2536C85.6401 79.2536 84.9541 87.0397 84.9541 88.0618C84.9541 89.0839 86.5319 96.1635 86.5319 96.1635L94.7639 103.579L102.948 90.6617L104.601 85.5442C104.601 85.5442 103.812 84.9199 102.948 85.9421L104.045 82.2445C104.045 82.2445 102.79 80.5913 101.987 82.0867C101.185 83.5822 100.417 85.1532 100.417 85.1532L97.1923 88.6929L100.732 83.2667L101.514 79.2536C101.514 79.2536 100.417 77.9982 99.1543 79.8092C98.3748 80.9298 97.6865 82.1113 97.0963 83.3421L94.27 86.2919L97.8852 80.0425C97.8852 80.0425 98.6741 77.6826 97.2541 77.6826C95.8341 77.6826 89.7081 86.6486 89.7081 86.6486L88.4939 87.513L87.8696 84.2751C87.8696 84.2751 88.7888 79.2536 85.6401 79.2536Z" fill="#FFBF9D"/>
<path d="M89.2759 117.827L89.3582 117.574L89.6189 116.888L90.6684 114.082C91.6014 111.619 92.9597 108.059 94.661 103.572C96.9453 99.9502 99.7099 95.5667 102.811 90.6343V90.6686C103.325 89.0634 103.881 87.3347 104.457 85.5511L104.505 85.7294C104.401 85.6553 104.282 85.6052 104.156 85.5827C104.03 85.5601 103.901 85.5657 103.778 85.5991C103.506 85.6962 103.267 85.8701 103.092 86.0999L102.591 86.6967L102.811 85.9489C103.154 84.7965 103.497 83.5342 103.908 82.2514V82.4023C103.653 82.0509 103.277 81.8065 102.852 81.7163C102.753 81.7118 102.655 81.732 102.567 81.7751C102.478 81.8183 102.401 81.883 102.344 81.9633C102.197 82.1475 102.074 82.3505 101.981 82.567L100.609 85.311L97.3912 88.8507L97.11 88.6381L100.65 83.2118V83.2735C100.904 82.0044 101.171 80.6393 101.439 79.2604L101.48 79.4114C101.356 79.2762 101.199 79.1745 101.026 79.1157C100.852 79.057 100.666 79.043 100.485 79.0752C100.098 79.1877 99.7612 79.4299 99.5316 79.7612C98.7005 80.9183 97.9772 82.1491 97.3707 83.4382C96.4171 84.4329 95.4773 85.4139 94.5375 86.3811L93.5222 87.4376L94.2562 86.1753L97.8783 79.9259C98.0952 79.3613 98.1359 78.7442 97.9949 78.156C97.95 78.0377 97.8669 77.9377 97.7589 77.8719C97.6508 77.806 97.5238 77.7781 97.3981 77.7924C97.1403 77.884 96.906 78.0316 96.7121 78.2246C95.8103 79.0674 94.9818 79.9854 94.2356 80.9686C92.7127 82.8757 91.3201 84.8033 90.0167 86.683L88.7545 87.5473L88.5556 87.6777L88.5144 87.4444C88.3017 86.34 88.0959 85.2629 87.8901 84.2065V84.1516C88.0854 83.1138 88.0667 82.047 87.8353 81.0166C87.7337 80.5383 87.4953 80.0998 87.1493 79.7544C86.7789 79.4589 86.3197 79.297 85.8459 79.2947L85.9899 79.1713C85.8253 80.9549 85.6721 82.6539 85.5303 84.2682C85.4617 85.0709 85.4 85.8529 85.3382 86.6144C85.3382 86.9985 85.2902 87.369 85.2628 87.7394C85.2546 88.096 85.2845 88.4524 85.3519 88.8027C85.8321 91.6222 86.3741 94.0506 86.7925 96.0537L83.9456 100.581L83.0058 101.892C82.8343 102.145 82.7383 102.269 82.7383 102.269L82.9647 101.864C83.1362 101.59 83.3694 101.178 83.6507 100.691L86.4358 96.1223V96.1841C85.9968 94.181 85.4343 91.7662 84.9335 88.933C84.8603 88.5672 84.8258 88.1948 84.8306 87.8217C84.8306 87.4513 84.8786 87.0808 84.8992 86.6967C84.9609 85.9352 85.0158 85.1463 85.0775 84.3437L85.5097 79.2399V79.1095H85.6332C86.1747 79.1063 86.7007 79.2905 87.1218 79.6309C87.5163 79.9999 87.7932 80.4772 87.9176 81.0029C88.1638 82.0752 88.1872 83.1866 87.9862 84.2682V84.2134C88.192 85.2698 88.4046 86.34 88.6242 87.4513L88.3772 87.3484L89.6394 86.484L89.5983 86.5252C90.9017 84.6387 92.2874 82.7042 93.8172 80.7765C94.5782 79.7803 95.4203 78.8488 96.3348 77.9913C96.5858 77.7406 96.9017 77.5647 97.2472 77.4837C97.4401 77.4743 97.6321 77.5169 97.8028 77.6072C97.9701 77.7102 98.0999 77.8641 98.1733 78.0462C98.2958 78.377 98.3312 78.7337 98.2762 79.0821C98.2413 79.4153 98.1724 79.744 98.0704 80.0631L94.4552 86.3125L94.1739 86.0999L97.0071 83.1501L96.9728 83.2049C97.5894 81.8889 98.3266 80.6327 99.1748 79.4525C99.4514 79.0465 99.8617 78.7503 100.334 78.6156C100.577 78.5692 100.828 78.5865 101.063 78.6659C101.297 78.7452 101.507 78.8839 101.672 79.0684L101.734 79.1301V79.2193C101.466 80.5913 101.199 81.9633 100.945 83.2324L97.405 88.6586L97.1306 88.446L100.355 84.9062V84.9474L101.727 82.2034C101.835 81.9587 101.974 81.7283 102.138 81.5174C102.232 81.4009 102.351 81.3079 102.487 81.2459C102.623 81.1839 102.771 81.1547 102.92 81.1607C103.448 81.261 103.916 81.5638 104.224 82.0044L104.272 82.0662V82.1554C103.895 83.4382 103.517 84.7004 103.167 85.846L102.893 85.702C103.115 85.4192 103.416 85.209 103.757 85.0983C103.929 85.0538 104.108 85.0473 104.282 85.0793C104.456 85.1113 104.621 85.181 104.766 85.2835L104.855 85.3521L104.821 85.4619C104.238 87.2386 103.675 88.9673 103.161 90.5657L94.9285 103.469C93.1861 107.935 91.7935 111.489 90.8125 113.938L89.708 116.723C89.5846 117.025 89.4885 117.265 89.4131 117.409C89.3946 117.556 89.3481 117.698 89.2759 117.827Z" fill="#FF9A6C"/>
<path d="M103.051 85.5996C102.94 86.4964 102.729 87.3779 102.42 88.227L102.022 88.7141C101.353 89.6018 100.592 90.4158 99.751 91.1425C100.319 90.1864 100.989 89.2941 101.747 88.4808L102.152 88.0075L102.118 88.0623C102.336 87.2092 102.649 86.3832 103.051 85.5996Z" fill="#FF9A6C"/>
<defs>
<filter id="filter0_d_2465_6578" x="112.501" y="155.5" width="177.187" height="84" filterUnits="userSpaceOnUse" color-interpolation-filters="sRGB">
<feFlood flood-opacity="0" result="BackgroundImageFix"/>
<feColorMatrix in="SourceAlpha" type="matrix" values="0 0 0 0 0 0 0 0 0 0 0 0 0 0 0 0 0 0 127 0" result="hardAlpha"/>
<feOffset dy="4"/>
<feGaussianBlur stdDeviation="2"/>
<feComposite in2="hardAlpha" operator="out"/>
<feColorMatrix type="matrix" values="0 0 0 0 0 0 0 0 0 0 0 0 0 0 0 0 0 0 0.25 0"/>
<feBlend mode="normal" in2="BackgroundImageFix" result="effect1_dropShadow_2465_6578"/>
<feBlend mode="normal" in="SourceGraphic" in2="effect1_dropShadow_2465_6578" result="shape"/>
</filter>
</defs>
</svg>
