<svg width="14" height="14" viewBox="0 0 14 14" fill="none" xmlns="http://www.w3.org/2000/svg">
<path d="M7.00004 0.333374C3.32671 0.333374 0.333374 3.32671 0.333374 7.00004C0.333374 10.6734 3.32671 13.6667 7.00004 13.6667C10.6734 13.6667 13.6667 10.6734 13.6667 7.00004C13.6667 3.32671 10.6734 0.333374 7.00004 0.333374ZM10.1867 5.46671L6.40671 9.24671C6.31296 9.34034 6.18587 9.39293 6.05337 9.39293C5.92087 9.39293 5.79379 9.34034 5.70004 9.24671L3.81337 7.36004C3.72039 7.26595 3.66824 7.13899 3.66824 7.00671C3.66824 6.87442 3.72039 6.74747 3.81337 6.65337C4.00671 6.46004 4.32671 6.46004 4.52004 6.65337L6.05337 8.18671L9.48004 4.76004C9.67337 4.56671 9.99337 4.56671 10.1867 4.76004C10.38 4.95337 10.38 5.26671 10.1867 5.46671Z" fill="#58AD7F"/>
</svg>
